<?xml version="1.0" encoding="UTF-8"?>
<svg id="Layer_1" data-name="Layer 1" xmlns="http://www.w3.org/2000/svg" viewBox="0 0 1080 1080">
  <defs>
    <style>
      .cls-1 {
        fill: #f3f8ff;
      }

      .cls-1, .cls-2 {
        stroke-width: 0px;
      }

      .cls-2 {
        fill: #002b3e;
      }
    </style>
  </defs>
  <g>
    <path class="cls-2" d="M963.12,580.58h-37c0-52.12-10.2-102.67-30.33-150.25-19.44-45.97-47.28-87.25-82.74-122.71s-76.74-63.29-122.71-82.74c-47.58-20.12-98.13-30.33-150.25-30.33s-102.67,10.2-150.25,30.33c-45.97,19.44-87.25,47.28-122.71,82.74s-63.29,76.74-82.74,122.71c-20.12,47.58-30.33,98.13-30.33,150.25h-37c0-57.1,11.19-112.5,33.25-164.67,21.31-50.38,51.81-95.61,90.65-134.46s84.08-69.34,134.46-90.65c52.16-22.06,107.57-33.25,164.67-33.25s112.5,11.19,164.67,33.25c50.38,21.31,95.61,51.81,134.46,90.65,38.84,38.84,69.34,84.08,90.65,134.46,22.06,52.16,33.25,107.57,33.25,164.67Z"/>
    <path class="cls-2" d="M540.09,273c-174.23,0-315.47,141.24-315.47,315.48,0,58.12,15.73,112.57,43.14,159.33,1.16,1.98,1.39,4.32.8,6.53,0,.01,0,.02,0,.03l-33.32,124.36c-2.59,9.67,6.26,18.53,15.94,15.94l124.36-33.32c.24-.06.47-.13.7-.21,2.15-.7,4.51-.36,6.47.77,46.33,26.73,100.08,42.04,157.41,42.04,174.23,0,315.48-141.24,315.48-315.47,0-174.09-141.39-315.48-315.48-315.48Z"/>
    <path class="cls-1" d="M540.09,732.65c-40.86,0-76.77-16.85-98.53-46.24-3.61-4.88-2.59-11.77,2.3-15.39,4.88-3.62,11.77-2.59,15.39,2.3,10.32,13.94,34.55,37.33,80.85,37.33,38.57,0,67.1-19.35,80.95-37.47,3.69-4.83,10.59-5.75,15.42-2.06,4.83,3.69,5.75,10.59,2.06,15.42-17.04,22.29-51.84,46.11-98.43,46.11Z"/>
    <g>
      <path class="cls-2" d="M210.95,440.67c1.53-3.39-1.09-7.2-4.81-6.96-73.37,4.85-131.38,65.89-131.38,140.49,0,70.38,51.64,128.7,119.11,139.14,3.66.57,6.6-3,5.38-6.5-12.87-37.08-19.87-76.9-19.87-118.36,0-52.67,11.29-102.7,31.58-147.8Z"/>
      <path class="cls-2" d="M1005.24,573.46c0-74.65-58.09-135.72-131.54-140.5-3.72-.24-6.33,3.58-4.8,6.97,20.5,45.3,31.91,95.59,31.91,148.54,0,41.16-6.9,80.71-19.6,117.56-1.21,3.51,1.74,7.07,5.4,6.49,67.22-10.64,118.62-68.85,118.62-139.07Z"/>
    </g>
  </g>
  <path class="cls-1" d="M652.89,459.77c-44.31,0-80.23,35.92-80.23,80.23s35.92,80.23,80.23,80.23,80.23-35.92,80.23-80.23-35.92-80.23-80.23-80.23ZM652.89,568c-15.46,0-28-12.53-28-28s12.53-28,28-28,28,12.53,28,28-12.53,28-28,28Z"/>
  <path class="cls-1" d="M478.65,568c19.68,0,32.23-21.06,22.81-38.34-13.6-24.95-40.07-41.89-70.49-41.89s-56.89,16.93-70.49,41.89c-9.42,17.28,3.13,38.34,22.81,38.34h0c9.52,0,18.52-4.98,23.07-13.34,4.74-8.73,13.99-14.65,24.62-14.65s19.88,5.92,24.62,14.65c4.55,8.37,13.54,13.34,23.07,13.34h0Z"/>
  <path class="cls-2" d="M910.76,250.89c2.37-2.47,4.74-4.93,7.1-7.4,5.69-5.92,11.37-11.84,17.06-17.77,6.88-7.17,13.76-14.33,20.64-21.5l17.85-18.59c2.89-3.01,5.83-6,8.68-9.04.04-.04.08-.09.12-.13,2.16-2.25,3.51-5.34,3.51-8.49,0-2.94-1.31-6.46-3.51-8.49s-5.29-3.66-8.49-3.51c-3.15.14-6.25,1.19-8.49,3.51-2.37,2.47-4.74,4.93-7.1,7.4-5.69,5.92-11.37,11.84-17.06,17.77-6.88,7.17-13.76,14.33-20.64,21.5-5.95,6.2-11.9,12.39-17.85,18.59-2.89,3.01-5.83,6-8.68,9.04-.04.04-.08.09-.12.13-2.16,2.25-3.51,5.34-3.51,8.49,0,2.94,1.31,6.46,3.51,8.49s5.29,3.66,8.49,3.51,6.25-1.19,8.49-3.51h0Z"/>
  <path class="cls-2" d="M829.39,108.01v91.53c0,4.23-.06,8.46,0,12.68,0,.06,0,.12,0,.18,0,3.08,1.34,6.31,3.51,8.49s5.5,3.65,8.49,3.51c6.5-.29,12-5.27,12-12v-91.53c0-4.23.06-8.46,0-12.68,0-.06,0-.12,0-.18,0-3.08-1.34-6.31-3.51-8.49s-5.5-3.65-8.49-3.51c-6.5.29-12,5.27-12,12h0Z"/>
  <path class="cls-2" d="M1036.03,285h-91.53c-4.23,0-8.46-.06-12.68,0-.06,0-.12,0-.18,0-3.08,0-6.31,1.34-8.49,3.51s-3.65,5.5-3.51,8.49c.29,6.5,5.27,12,12,12h91.53c4.23,0,8.46.06,12.68,0,.06,0,.12,0,.18,0,3.08,0,6.31-1.34,8.49-3.51s3.65-5.5,3.51-8.49c-.29-6.5-5.27-12-12-12h0Z"/>
</svg>